<?xml version="1.0" encoding="utf-8"?>
<!-- Generator: Adobe Illustrator 15.0.0, SVG Export Plug-In . SVG Version: 6.00 Build 0)  -->
<!DOCTYPE svg PUBLIC "-//W3C//DTD SVG 1.1//EN" "http://www.w3.org/Graphics/SVG/1.1/DTD/svg11.dtd">
<svg version="1.1" id="Layer_1" xmlns="http://www.w3.org/2000/svg" xmlns:xlink="http://www.w3.org/1999/xlink" x="0px" y="0px"
	 width="89.125px" height="18.25px" viewBox="7.875 7.333 89.125 18.25" enable-background="new 7.875 7.333 89.125 18.25"
	 xml:space="preserve">
<g>
	<path d="M14.473,16.328v-1.601h3.653c0,3.797-0.971,6.712-4.03,6.712c-3.186,0-4.229-3.005-4.229-6.478
		c0-3.456,1.044-6.479,4.229-6.479c1.979,0,3.149,1.188,3.725,2.916l-1.476,0.828c-0.36-1.314-1.08-2.142-2.249-2.142
		c-1.872,0-2.573,2.142-2.573,4.877c0,2.753,0.702,4.895,2.573,4.895c1.655,0,2.231-1.655,2.267-3.526h-1.89V16.328z"/>
	<path d="M35.258,21.257l-0.648-2.572h-3.562l-0.63,2.572h-1.745l3.275-12.596h1.781l3.275,12.596H35.258z M33.116,12.441
		c-0.126-0.486-0.252-1.242-0.252-1.242h-0.036c0,0-0.144,0.756-0.27,1.242l-1.17,4.75h2.898L33.116,12.441z"/>
	<path d="M38.839,21.257V8.662h2.897c3.401,0,4.607,2.843,4.607,6.299c0,3.455-1.206,6.298-4.536,6.298h-2.968V21.257z
		 M41.808,19.675c1.998,0,2.862-1.943,2.862-4.714s-0.864-4.715-2.933-4.715h-1.242v9.429H41.808L41.808,19.675z"/>
	<path d="M54.351,8.662h1.672v8.404c0,2.969-1.492,4.373-3.688,4.373c-2.196,0-3.725-1.404-3.725-4.391V8.662h1.655v8.242
		c0,1.656,0.469,2.951,2.052,2.951c1.62,0,2.033-1.295,2.033-2.969V8.662L54.351,8.662z"/>
	<path d="M59.336,18.109c0.414,1.062,1.368,1.746,2.502,1.746c1.367,0,2.123-0.811,2.123-1.891c0-2.698-5.613-2.212-5.613-6.171
		c0-1.854,1.35-3.311,3.438-3.311c1.906,0,3.041,1.043,3.635,2.537l-1.493,0.864c-0.323-1.008-0.973-1.799-2.159-1.799
		c-1.115,0-1.746,0.72-1.746,1.655c0,2.771,5.597,2.088,5.597,6.19c0,2.052-1.457,3.509-3.778,3.509
		c-1.871,0-3.312-0.989-3.941-2.394L59.336,18.109z"/>
</g>
<g>
	<path fill="#2CC0D3" d="M67.788,14.803c0-3.456,1.043-6.479,4.337-6.479c3.293,0,4.337,3.023,4.337,6.479
		c0,3.455-1.044,6.478-4.337,6.478C68.831,21.281,67.788,18.257,67.788,14.803z M74.122,14.803c0-2.628-0.558-4.229-1.997-4.229
		s-1.998,1.601-1.998,4.229c0,2.626,0.576,4.23,1.998,4.23S74.122,17.429,74.122,14.803z"/>
	<path fill="#2CC0D3" d="M84.254,21.101l-3.222-7.072c-0.144-0.342-0.306-0.845-0.306-0.845h-0.037c0,0,0.019,0.54,0.019,0.936
		v6.982h-2.087V8.504h2.23l3.168,6.893c0.145,0.306,0.306,0.845,0.306,0.845h0.036c0-0.09-0.019-0.612-0.019-0.917v-6.82h2.089
		v12.597L84.254,21.101L84.254,21.101z"/>
</g>
<g>
	<path fill="#2CC0D3" d="M89.047,21.142V8.545h6.694v2.249h-4.354v3.221h3.672v2.25h-3.672v2.627h4.354v2.249L89.047,21.142
		L89.047,21.142z"/>
</g>
<path d="M21.989,10.183l0.05,11.348h-1.925L20.089,8.358l2.95-0.025c0,0,4.124,0.2,4.549,3.574c0.425,3.375-2.225,4.374-2.3,4.649
	c-0.075,0.273,1.737,2.261,1.737,2.261l-1.262,1.138l-2.938-3.574c4.574-2.524,3.25-5.686,0.783-6.161
	C23.574,10.213,22.551,10.195,21.989,10.183z"/>
<polygon fill="#2CC0D3" points="24.213,23.929 24.213,20.605 27.638,20.605 "/>
<polygon display="none" points="9.22,0 1.994,0 0.571,0 0,0 0,9.049 1.994,9.049 1.994,1.993 9.22,1.993 "/>
<polygon display="none" points="104.145,0 102.775,0 95.495,0 95.495,1.993 102.775,1.993 102.775,27.501 95.495,27.501 
	95.495,29.496 102.775,29.496 102.775,29.496 104.771,29.496 104.771,0 "/>
<rect x="106.583" y="27.501" display="none" fill="#2CC0D3" width="3.417" height="1.992"/>
<polygon display="none" points="1.994,27.501 1.994,20.695 0,20.695 0,29.496 0.571,29.496 1.994,29.496 9.22,29.496 9.22,27.501 
	"/>
</svg>
