<?xml version="1.0" encoding="utf-8"?>
<!-- Generator: Adobe Illustrator 15.0.0, SVG Export Plug-In . SVG Version: 6.00 Build 0)  -->
<!DOCTYPE svg PUBLIC "-//W3C//DTD SVG 1.1//EN" "http://www.w3.org/Graphics/SVG/1.1/DTD/svg11.dtd">
<svg version="1.1" id="Layer_1" xmlns="http://www.w3.org/2000/svg" xmlns:xlink="http://www.w3.org/1999/xlink" x="0px" y="0px"
	 width="612px" height="600px" viewBox="0 0 612 600" enable-background="new 0 0 612 600" xml:space="preserve">
<g>
	<g>
		<path fill="#40C8DC" d="M253.992,301.048c-12.15,0-22-9.85-22-22s9.85-22,22-22h8.909l-37.409-77h31v-30h15.684l12.982-24.667
			l-42.333,20v-29.169c-55.34,24.273-94,79.536-94,143.836c0,65.819,40.508,122.169,97.949,145.504
			c11.088-42.302,14.009-84.976,14.776-104.504H253.992z"/>
	</g>
	<g>
		<path fill="#40C8DC" d="M326.492,125.381l12.982,24.667h15.017v30h31l-37.409,77h8.909c12.15,0,22,9.85,22,22s-9.85,22-22,22
			H349.1c0.77,19.585,3.706,62.45,14.873,104.873c57.921-23.108,98.853-79.708,98.853-145.873
			c0-64.171-38.505-119.341-93.666-143.69v29.023L326.492,125.381z"/>
	</g>
</g>
<path fill="none" stroke="#474B55" stroke-width="20" stroke-miterlimit="10" d="M392.325,473c-43-64.377-43-178.5-43-178.5h-87
	c0,0,0,114.123-43,178.5"/>
<g>
	<path fill="#474B55" d="M357.325,273c3.309,0,6,2.691,6,6s-2.691,6-6,6h-103c-3.309,0-6-2.691-6-6s2.691-6,6-6H357.325
		 M357.325,257h-103c-12.15,0-22,9.85-22,22s9.85,22,22,22h103c12.15,0,22-9.85,22-22S369.476,257,357.325,257L357.325,257z"/>
</g>
<g>
	<path fill="#474B55" d="M402.825,487c4.963,0,9,4.037,9,9v2c0,4.963-4.037,9-9,9h-194c-4.962,0-9-4.037-9-9v-2c0-4.963,4.038-9,9-9
		H402.825 M402.825,467h-194c-16.016,0-29,12.983-29,29v2c0,16.017,12.984,29,29,29h194c16.017,0,29-12.983,29-29v-2
		C431.825,479.983,418.842,467,402.825,467L402.825,467z"/>
</g>
<polygon fill="none" stroke="#474B55" stroke-width="20" stroke-miterlimit="10" points="345.825,262.333 265.825,262.333 
	225.825,180 385.825,180 "/>
<g>
	<path fill="#474B55" d="M338.825,166v6h-66v-6H338.825 M354.825,150h-98v38h98V150L354.825,150z"/>
</g>
<g>
	<path fill="#474B55" d="M386.659,527v8H224.992v-8H386.659 M402.659,511H208.992v40h193.667V511L402.659,511z"/>
</g>
<g>
	<g>
		<path fill="#474B55" d="M322.532,62l-8.445,15.201l-8.429,15.171l-8.429-15.171L288.785,62H322.532 M354.992,86.024v37.285
			l-22.725-10.652l-17.047-7.991l17.047-7.99L354.992,86.024 M256.658,86.098l22.353,10.56l16.951,8.009l-16.951,8.008
			l-22.353,10.56V86.098 M305.658,116.125l8.278,15.729l9.199,17.479H288.18l9.2-17.479L305.658,116.125 M346.325,48h-81.334l20,36
			l-42.333-20v81.333l42.333-20l-20,38h81.334l-20-38l42.667,20V64l-42.667,20L346.325,48L346.325,48z"/>
	</g>
</g>
</svg>
