<?xml version="1.0" encoding="iso-8859-1"?>
<!-- Generator: Adobe Illustrator 19.0.0, SVG Export Plug-In . SVG Version: 6.00 Build 0)  -->
<svg version="1.1" id="Layer_1" xmlns="http://www.w3.org/2000/svg" xmlns:xlink="http://www.w3.org/1999/xlink" x="0px" y="0px"
	 viewBox="0 0 473.931 473.931" style="enable-background:new 0 0 473.931 473.931;" xml:space="preserve">
<circle style="fill:#13B3CA;" cx="236.966" cy="236.966" r="236.966"/>
<path style="fill:#10ABB6;" d="M404.525,69.387c92.541,92.537,92.541,242.586-0.007,335.134
	c-92.541,92.541-242.593,92.541-335.134,0L404.525,69.387z"/>
<path style="fill:#0EA2A4;" d="M458.691,320.605L327.513,189.427l-23.622,23.622L200.293,109.446l-48.755,48.755l44.201,44.201
	l-35.315,35.315l59.4,59.4l-47.079,47.079l122.49,122.49C370.621,447.619,431.578,392.428,458.691,320.605z"/>
<path style="fill:#FFFFFF;" d="M309.747,302.877h-67.587c-9.399,0-17.384-3.289-23.947-9.893
	c-6.585-6.612-9.852-14.597-9.852-24.041v-24.052h96.298c8.681,0,16.164-3.121,22.376-9.321c6.211-6.249,9.332-13.721,9.332-22.421
	c0-8.718-3.121-16.183-9.347-22.413c-6.234-6.211-13.74-9.328-22.458-9.328H208.36v-49.687c0-9.407-3.349-17.459-10.02-24.164
	c-6.627-6.716-14.638-10.088-23.955-10.088c-9.583,0-17.721,3.323-24.366,9.893c-6.649,6.593-9.968,14.713-9.968,24.393v137.214
	c0,28.224,9.968,52.332,29.942,72.351c19.974,20.041,44.052,30.043,72.205,30.043h67.572c9.377,0,17.429-3.368,24.131-10.092
	c6.702-6.687,10.043-14.75,10.043-24.146c0-9.399-3.341-17.448-10.043-24.168C327.198,306.259,319.135,302.877,309.747,302.877z"/>
<g>
</g>
<g>
</g>
<g>
</g>
<g>
</g>
<g>
</g>
<g>
</g>
<g>
</g>
<g>
</g>
<g>
</g>
<g>
</g>
<g>
</g>
<g>
</g>
<g>
</g>
<g>
</g>
<g>
</g>
</svg>
