<?xml version="1.0" encoding="utf-8"?>
<!-- Generator: Adobe Illustrator 15.0.0, SVG Export Plug-In . SVG Version: 6.00 Build 0)  -->
<!DOCTYPE svg PUBLIC "-//W3C//DTD SVG 1.1//EN" "http://www.w3.org/Graphics/SVG/1.1/DTD/svg11.dtd">
<svg version="1.1" id="Layer_1" xmlns="http://www.w3.org/2000/svg" xmlns:xlink="http://www.w3.org/1999/xlink" x="0px" y="0px"
	 width="612px" height="600px" viewBox="0 0 612 600" enable-background="new 0 0 612 600" xml:space="preserve">
<circle fill="#44D3E8" cx="291.181" cy="281.048" r="107.994"/>
<g>
	<path fill="#FFFFFF" stroke="#FFFFFF" stroke-miterlimit="10" d="M288.74,313.714c-31.422,0-58.058,20.422-67.406,48.712
		c18.828,15.978,43.199,25.616,69.825,25.616c24.831,0,47.701-8.386,65.94-22.474C348.746,335.661,321.314,313.714,288.74,313.714z"
		/>
</g>
<line fill="none" stroke="#474B55" stroke-width="20" stroke-miterlimit="6" x1="375.326" y1="367.663" x2="441.998" y2="434.336"/>
<line fill="none" stroke="#474B55" stroke-width="20" stroke-miterlimit="6" x1="173.999" y1="166.336" x2="202.329" y2="194.666"/>
<line fill="none" stroke="#474B55" stroke-width="20" stroke-miterlimit="6" x1="376.666" y1="194.335" x2="427.666" y2="143.336"/>
<line fill="none" stroke="#474B55" stroke-width="20" stroke-miterlimit="6" x1="151.666" y1="419.335" x2="203.001" y2="368"/>
<path fill="none" stroke="#BABABA" stroke-width="20" stroke-miterlimit="6" stroke-dasharray="30,10" d="M203.37,168.383
	c24.224-19.031,54.768-30.381,87.962-30.381c31.473,0,60.562,10.203,84.142,27.481"/>
<path fill="none" stroke="#BABABA" stroke-width="20" stroke-miterlimit="6" stroke-dasharray="30,10" d="M203.37,394.669
	c24.224,19.031,54.768,30.381,87.962,30.381c31.473,0,60.562-10.203,84.142-27.479"/>
<path fill="none" stroke="#BABABA" stroke-width="20" stroke-miterlimit="6" stroke-dasharray="30,10" d="M404.231,367.148
	c19.028-24.226,30.381-54.771,30.381-87.961c0-31.474-10.203-60.562-27.481-84.144"/>
<path fill="none" stroke="#BABABA" stroke-width="20" stroke-miterlimit="6" stroke-dasharray="30,10" d="M176.856,367.148
	c-19.031-24.226-30.381-54.771-30.381-87.961c0-31.474,10.203-60.562,27.481-84.144"/>
<circle fill="none" stroke="#474B54" stroke-width="20" stroke-miterlimit="10" cx="133.666" cy="124.002" r="33.333"/>
<circle fill="none" stroke="#F96232" stroke-width="20" stroke-miterlimit="10" cx="472.666" cy="94.668" r="45.333"/>
<circle fill="none" stroke="#474B54" stroke-width="20" stroke-miterlimit="10" cx="105.185" cy="468.149" r="45.333"/>
<circle fill="none" stroke="#474B54" stroke-width="20" stroke-miterlimit="10" cx="497.664" cy="491.146" r="55.832"/>
<circle fill="#FFFFFF" stroke="#FFFFFF" stroke-miterlimit="10" cx="291.18" cy="263.672" r="42"/>
<circle fill="none" stroke="#44D3E8" stroke-width="20" stroke-miterlimit="10" cx="291.181" cy="281.048" r="97.661"/>
</svg>
