<?xml version="1.0" encoding="utf-8"?>
<!-- Generator: Adobe Illustrator 15.0.0, SVG Export Plug-In . SVG Version: 6.00 Build 0)  -->
<!DOCTYPE svg PUBLIC "-//W3C//DTD SVG 1.1//EN" "http://www.w3.org/Graphics/SVG/1.1/DTD/svg11.dtd">
<svg version="1.1" id="Layer_1" xmlns="http://www.w3.org/2000/svg" xmlns:xlink="http://www.w3.org/1999/xlink" x="0px" y="0px"
	 width="612px" height="600px" viewBox="0 0 612 600" enable-background="new 0 0 612 600" xml:space="preserve">
<rect x="95.373" y="162.058" fill="#44D3E8" width="418.479" height="335.983"/>
<path fill="none" stroke="#474B54" stroke-width="20" stroke-miterlimit="6" d="M550.344,228.924c0,56.333-40.145,102-89.662,102
	H149.447c-49.52,0-89.663-45.667-89.663-102V128.812h490.56V228.924z"/>
<path fill="none" stroke="#474B54" stroke-width="20" stroke-miterlimit="6" d="M553.351,331.3v160.738
	c0,25.405-29.981,46-66.964,46H126.84c-36.984,0-66.965-20.595-66.965-46V331.3"/>
<path fill="none" stroke="#474B54" stroke-width="20" stroke-miterlimit="6" d="M203.367,123.551V86.062c0-12.702,10.297-23,23-23
	h163.99c12.703,0,23,10.298,23,23v37.488"/>
<rect x="162.792" y="279.052" fill="#FFFFFF" stroke="#474B54" stroke-width="20" stroke-miterlimit="6" width="43.575" height="101.995"/>
<rect x="408.78" y="279.052" fill="#FFFFFF" stroke="#474B54" stroke-width="20" stroke-miterlimit="6" width="43.575" height="101.995"/>
</svg>
