<?xml version="1.0" encoding="utf-8"?>
<!-- Generator: Adobe Illustrator 15.0.0, SVG Export Plug-In . SVG Version: 6.00 Build 0)  -->
<!DOCTYPE svg PUBLIC "-//W3C//DTD SVG 1.1//EN" "http://www.w3.org/Graphics/SVG/1.1/DTD/svg11.dtd">
<svg version="1.1" id="Layer_1" xmlns="http://www.w3.org/2000/svg" xmlns:xlink="http://www.w3.org/1999/xlink" x="0px" y="0px"
	 width="612px" height="600px" viewBox="0 0 612 600" enable-background="new 0 0 612 600" xml:space="preserve">
<path fill="#40C8DC" d="M459.952,252.066c0-85.016-68.919-153.934-153.935-153.934S152.084,167.05,152.084,252.066
	c0,84.682,47.631,103.336,80.203,153.03c7.313,11.158,12.383,41.552,12.383,41.552h122.695c0,0,3.94-30.394,11.254-41.552
	C411.192,355.402,459.952,336.748,459.952,252.066z"/>
<line fill="none" stroke="#474B54" stroke-width="30" stroke-miterlimit="6" x1="233.756" y1="460.197" x2="378.281" y2="460.197"/>
<line fill="none" stroke="#474B54" stroke-width="30" stroke-miterlimit="6" x1="233.756" y1="505.361" x2="378.281" y2="505.361"/>
<line fill="none" stroke="#474B54" stroke-width="30" stroke-miterlimit="6" x1="273.273" y1="550.525" x2="338.763" y2="550.525"/>
<path fill="none" stroke="#BABABA" stroke-width="20" stroke-miterlimit="6" stroke-dasharray="30,9" d="M206.416,436.9
	c-63.286-35.19-106.121-102.719-106.163-180.268c-0.06-113.909,92.23-206.298,206.138-206.361
	c113.909-0.061,206.3,92.23,206.362,206.138c0.04,75.22-40.191,141.058-100.325,177.12"/>
<polygon fill="#FFFFFF" points="308.685,144.802 308.685,283.444 248.904,283.444 "/>
<polygon fill="#FFFFFF" points="307.414,386.68 307.414,248.038 367.195,248.038 "/>
</svg>
