<?xml version="1.0" encoding="utf-8"?>
<!-- Generator: Adobe Illustrator 15.0.0, SVG Export Plug-In . SVG Version: 6.00 Build 0)  -->
<!DOCTYPE svg PUBLIC "-//W3C//DTD SVG 1.1//EN" "http://www.w3.org/Graphics/SVG/1.1/DTD/svg11.dtd">
<svg version="1.1" id="Layer_1" xmlns="http://www.w3.org/2000/svg" xmlns:xlink="http://www.w3.org/1999/xlink" x="0px" y="0px"
	 width="612px" height="600px" viewBox="0 0 612 600" enable-background="new 0 0 612 600" xml:space="preserve">
<g>
	<path fill="#474B54" d="M305.018,116.132c35.775,0,69.409,13.932,94.706,39.229c25.297,25.296,39.229,58.931,39.229,94.706
		c0,52.351-19.967,74.152-45.245,101.753c-11.053,12.069-22.482,24.55-32.815,40.312c-3.719,5.674-7.687,15.428-11.507,48.102
		c-0.55,4.7-1.023,9.268-1.422,13.414h-86.222c-0.481-4.235-1.049-8.925-1.698-13.754c-4.366-32.507-8.361-42.166-12.029-47.762
		c-10.187-15.541-21.345-27.882-32.135-39.815c-25.027-27.679-44.795-49.541-44.795-102.25c0-35.775,13.932-69.409,39.228-94.706
		C235.609,130.063,269.243,116.132,305.018,116.132 M305.018,96.132c-85.016,0-153.934,68.918-153.934,153.934
		c0,84.682,47.631,103.336,80.203,153.03c7.313,11.158,12.383,70.552,12.383,70.552h122.695c0,0,3.94-59.394,11.254-70.552
		c32.573-49.693,81.333-68.348,81.333-153.03C458.952,165.05,390.033,96.132,305.018,96.132L305.018,96.132z"/>
</g>
<line fill="none" stroke="#474B54" stroke-width="30" stroke-miterlimit="6" x1="232.756" y1="459.197" x2="377.281" y2="459.197"/>
<line fill="none" stroke="#474B54" stroke-width="30" stroke-miterlimit="6" x1="232.756" y1="503.361" x2="377.281" y2="503.361"/>
<line fill="none" stroke="#474B54" stroke-width="30" stroke-miterlimit="6" x1="272.273" y1="548.525" x2="337.763" y2="548.525"/>
<path fill="none" stroke="#BABABA" stroke-width="20" stroke-miterlimit="6" stroke-dasharray="30,9" d="M205.416,434.9
	C142.13,399.71,99.294,332.182,99.253,254.632c-0.06-113.909,92.23-206.298,206.138-206.361
	c113.909-0.061,206.3,92.23,206.362,206.138c0.04,75.22-40.191,141.058-100.325,177.12"/>
<line fill="none" stroke="#474B54" stroke-width="20" stroke-miterlimit="6" x1="252.001" y1="456.333" x2="252.001" y2="504.333"/>
<line fill="none" stroke="#474B54" stroke-width="20" stroke-miterlimit="6" x1="358.001" y1="456.333" x2="358.001" y2="504.333"/>
<path fill="#F96232" d="M297.901,176.482c-0.587-10.952-9.652-19.652-20.751-19.652c-10.627,0-19.384,7.978-20.625,18.27
	c-2.86-1.483-6.106-2.327-9.553-2.327c-11.477,0-20.781,9.304-20.781,20.782c0,1.473,0.156,2.909,0.447,4.295
	c-11.023,0.51-19.806,9.606-19.806,20.757c0,5.419,2.075,10.352,5.473,14.051c-7.25,3.244-12.305,10.516-12.305,18.973
	c0,8.302,4.869,15.464,11.906,18.793c-3.497,3.719-5.644,8.722-5.644,14.229c0,11.479,9.305,20.782,20.782,20.782
	c0.457,0,0.909-0.02,1.36-0.049c-0.694,2.073-1.075,4.289-1.075,6.597c0,11.478,9.304,20.782,20.781,20.782
	c3.136,0,6.108-0.699,8.775-1.943C258.983,340.083,267.256,347,277.15,347c11.193,0,20.315-8.85,20.761-19.935l0.021,0.007V176.474
	L297.901,176.482z"/>
<path fill="#F96232" d="M312.768,327.348C313.355,338.3,322.42,347,333.519,347c10.627,0,19.384-7.979,20.625-18.27
	c2.86,1.483,6.106,2.326,9.553,2.326c11.477,0,20.781-9.304,20.781-20.781c0-1.473-0.156-2.909-0.447-4.295
	c11.023-0.511,19.806-9.607,19.806-20.757c0-5.418-2.075-10.351-5.473-14.05c7.25-3.245,12.305-10.516,12.305-18.974
	c0-8.302-4.869-15.464-11.906-18.793c3.497-3.719,5.644-8.723,5.644-14.23c0-11.478-9.305-20.782-20.782-20.782
	c-0.457,0-0.909,0.02-1.36,0.049c0.694-2.073,1.075-4.29,1.075-6.597c0-11.479-9.304-20.782-20.781-20.782
	c-3.136,0-6.108,0.699-8.775,1.943c-2.096-9.261-10.368-16.177-20.263-16.177c-11.193,0-20.315,8.85-20.761,19.934l-0.021-0.006
	v150.598L312.768,327.348z"/>
</svg>
