<?xml version="1.0" encoding="utf-8"?>
<!-- Generator: Adobe Illustrator 15.0.0, SVG Export Plug-In . SVG Version: 6.00 Build 0)  -->
<!DOCTYPE svg PUBLIC "-//W3C//DTD SVG 1.1//EN" "http://www.w3.org/Graphics/SVG/1.1/DTD/svg11.dtd">
<svg version="1.1" id="Layer_1" xmlns="http://www.w3.org/2000/svg" xmlns:xlink="http://www.w3.org/1999/xlink" x="0px" y="0px"
	 width="612px" height="600px" viewBox="0 0 612 600" enable-background="new 0 0 612 600" xml:space="preserve">
<path fill="none" stroke="#242E3C" stroke-width="20" stroke-miterlimit="10" d="M435.922,308.613h29.085
	c18.375,0,33.273,12.774,33.273,28.532l0,0c0,15.757-14.898,28.531-33.273,28.531h-29.623"/>
<path fill="none" stroke="#242E3C" stroke-width="20" stroke-miterlimit="10" d="M220.217,248.4
	c90.822-0.88,101.57-90.823,101.822-96.967c0.753-18.36,12.774-33.273,28.532-33.273l0,0c15.757,0,27.293,14.939,28.531,33.273
	c2.364,34.993-14.606,87.602-18.566,98.255l120.31,0.094c18.376,0,33.273,12.774,33.273,28.532l0,0
	c0,15.757-14.897,28.531-33.273,28.531h-44.331"/>
<path fill="none" stroke="#242E3C" stroke-width="20" stroke-miterlimit="10" d="M437.053,366.313h12.114
	c18.376,0,33.274,12.774,33.274,28.531l0,0c0,15.758-14.898,28.531-33.274,28.531h-12.652"/>
<path fill="none" stroke="#242E3C" stroke-width="20" stroke-miterlimit="10" d="M437.936,423.153
	c16.197,1.924,28.666,17.236,28.666,31.653l0,0c0,15.758-14.897,28.532-33.273,28.532H221.556"/>
<path opacity="0.34" fill="none" stroke="#474B54" stroke-width="20" stroke-miterlimit="6" d="M303.12,337.146"/>
<rect x="104" y="223.196" fill="#40C8DC" width="116.53" height="285.103"/>
<rect x="180.933" y="451.731" fill="#F5F5F5" width="20.365" height="21.495"/>
</svg>
